<svg width="10" height="8" viewBox="0 0 10 8" fill="none" xmlns="http://www.w3.org/2000/svg">
<path d="M7.7453 0.232653C7.90377 0.0817784 8.11466 -0.00163139 8.33347 2.41823e-05C8.55227 0.00167976 8.76187 0.0882714 8.91805 0.241527C9.07422 0.394783 9.16475 0.602715 9.17054 0.821449C9.17632 1.04018 9.0969 1.25261 8.94905 1.4139L4.4603 7.02765C4.38311 7.11079 4.28995 7.17751 4.1864 7.22382C4.08284 7.27012 3.971 7.29508 3.85758 7.29718C3.74416 7.29928 3.63148 7.27848 3.52627 7.23604C3.42107 7.1936 3.32551 7.13037 3.2453 7.05015L0.268547 4.0734C0.185649 3.99616 0.119159 3.90301 0.0730434 3.79951C0.0269274 3.69601 0.00213019 3.58428 0.00013131 3.47099C-0.00186757 3.3577 0.0189729 3.24517 0.0614091 3.14011C0.103845 3.03504 0.167008 2.93961 0.247129 2.85949C0.32725 2.77936 0.422688 2.7162 0.52775 2.67377C0.632811 2.63133 0.745344 2.61049 0.858635 2.61249C0.971926 2.61449 1.08365 2.63928 1.18715 2.6854C1.29065 2.73152 1.3838 2.79801 1.46105 2.8809L3.8168 5.23553L7.72392 0.257404C7.73096 0.248742 7.73847 0.240479 7.74642 0.232653H7.7453Z" fill="white" style="fill:white;fill-opacity:1;"/>
</svg>
